<svg xmlns="http://www.w3.org/2000/svg" viewBox="0 0 1200 1200"><path fill="#04588C" stroke="#262626" d="M499.589 429.077 497 432.153v67.473c0 74.304-.184 72.068 6.119 74.266 4.154 1.448 187.715 1.56 192.907.117 7.281-2.023 6.974 1.253 6.974-74.337v-67.519l-2.589-3.076-2.589-3.077H502.178l-2.589 3.077M515 500.5V557h170V444H515v56.5m4 86.417c-13.265 2.715-19.856 10.71-24.563 29.796-3.239 13.136-2.657 16.365 3.905 21.677l3.843 3.11 95.157.294c52.337.162 96.63.027 98.429-.299 4.273-.775 9.814-5.708 11.229-9.996 1.288-3.902-2.39-21.513-6.095-29.185-2.485-5.146-8.632-10.833-14.783-13.677-4.589-2.122-5.184-2.138-84.122-2.286-43.725-.083-81.075.172-83 .566M739 630v10h286v-20H739v10m-564 2v10h286v-20H175v10m428.746 58.033c-28.146 7.031-40.19 43.113-22.819 68.361 11.28 16.394 38.571 21.693 59.042 11.463l6.031-3.013V734H619.879l.311 3.75.31 3.75 7.25.294 7.25.294v19.024l-4.75 2.145c-5.543 2.503-18.037 2.968-24.958.928-15.859-4.672-24.591-26.931-17.988-45.856 6.026-17.273 25.868-23.985 44.167-14.941 8.55 4.226 9.794 4.147 12.529-.797 1.862-3.366-.007-5.228-10-9.96-7.09-3.358-22.066-4.644-30.254-2.598m209.428 1.281c-6.71 7.143 3.444 17.159 10.371 10.231 1.35-1.35 2.455-3.62 2.455-5.045 0-6.284-8.547-9.74-12.826-5.186m-552.94 39.944c-8.946 22.683-16.258 41.602-16.25 42.042.009.44 2.604.665 5.766.5l5.75-.3 4.412-11.25 4.412-11.25h36.51l4.369 11.25 4.368 11.25 6.144.296 6.144.296-5.24-13.296c-2.883-7.313-10.349-26.233-16.592-42.046L288.676 690l-6.088.008-6.088.008-16.266 41.242m21.845-27.473c-.043.706-3.229 9.48-7.079 19.497-3.85 10.018-7 18.552-7 18.966 0 .413 6.692.752 14.87.752h14.871l-7.254-18.901a7336.353 7336.353 0 0 0-7.792-20.25c-.41-1.03-.556-1.045-.616-.064m66.378 12.078c-1.673 1.02-4.247 3.287-5.72 5.038-2.918 3.468-2.936 3.452-3.957-3.401-.242-1.624-1.189-2.057-5.039-2.305L329 714.89V774h11v-18.54c0-20.271.619-22.988 6.486-28.46 2.28-2.127 3.6-2.49 8.847-2.436 3.392.036 6.498-.414 6.902-1 1.412-2.046.84-8.321-.817-8.957-3.168-1.216-9.991-.555-12.961 1.256m32.987.449c-20.739 9.91-21.383 46.232-.996 56.206 9.596 4.695 23.207 2.787 30.801-4.319l2.749-2.572-2.173-2.313c-2.705-2.879-3.019-2.874-7.596.142-13.854 9.126-27.218-.181-27.218-18.956 0-18.225 11.486-27.04 25.885-19.865l5.288 2.636 2.531-2.532c3.015-3.014 2.618-3.873-3.425-7.415-6.766-3.965-18.687-4.432-25.846-1.012m54.055-.924c-4.879 1.529-12.499 6.441-12.499 8.056 0 1.315 3.67 5.556 4.807 5.556.401 0 2.373-1.117 4.383-2.483 12.306-8.362 22.667-4.647 23.615 8.47l.435 6.013-5.37.015c-22.722.062-37.38 13.945-28.6 27.087 6.078 9.099 24.119 9.06 32.23-.07l2-2.251 1.085 3.86c1.018 3.623 1.345 3.878 5.332 4.171l4.248.311-.338-22.811c-.361-24.391-.99-27.535-6.507-32.524-5.061-4.576-16.201-6.102-24.821-3.4m66.001.568c-2.2 1.051-5.125 2.818-6.5 3.926l-2.5 2.015-1.084-3.198c-.958-2.828-1.566-3.235-5.25-3.506l-4.166-.308V774h11v-43.793l3.483-3.058c7.435-6.528 17.53-6.455 21.561.155 1.773 2.909 1.949 5.152 1.952 24.946L520 774h11v-21.851c0-22.519-.479-26.029-4.304-31.516-4.352-6.243-17.005-8.592-25.196-4.677m168.336-.089c-9.949 3.998-12.62 7.349-8.859 11.11 2.182 2.182 3.597 1.926 8.786-1.593 10.706-7.259 20.626-2.704 21.945 10.077l.541 5.236-7.875.584c-18.692 1.385-28.842 8.046-28.679 18.822.224 14.829 18.743 20.079 32.849 9.312 4.064-3.103 4.456-3.221 4.456-1.343 0 4.162 1.83 5.928 6.144 5.928h4.073l-.415-22.25c-.477-25.63-1.392-29.115-9.035-34.411-5.362-3.716-16.623-4.409-23.931-1.472m66.664-.478c-1.65.721-4.433 2.518-6.184 3.994l-3.184 2.684-.316-3.284c-.304-3.155-.501-3.295-5.066-3.588l-4.75-.305V774h11v-44.264l3.529-3.328c5.952-5.614 13.726-5.624 17.91-.024 1.912 2.558 2.085 4.385 2.394 25.187l.333 22.429h10.728l.303-22.483.303-22.483 3.269-3.267c4.768-4.765 12.056-4.765 16.313-.001l2.918 3.266V774H798.193l-.389-22.25c-.406-23.251-1.072-27.071-5.592-32.07-7.259-8.027-23.268-7.344-30.544 1.303-1.513 1.798-2.868 3.099-3.012 2.893a195.28 195.28 0 0 1-2.013-3.174c-3.812-6.089-12.888-8.483-20.143-5.313m123 .962c-2.75 1.282-5.618 3.077-6.372 3.99-2.045 2.471-2.966 2.029-3.315-1.591-.3-3.116-.508-3.263-5.063-3.555l-4.75-.305V774h10.962l.269-22.2.269-22.2 4.247-3.238c7.65-5.833 15.915-5.45 20.663.959 1.944 2.624 2.112 4.348 2.41 24.75l.32 21.929h11.024l-.338-22.75c-.365-24.685-.919-27.297-6.979-32.933-5.341-4.968-15.138-5.793-23.347-1.966m56.137-.886c-13.157 4.69-17.139 22.17-6.969 30.593l2.922 2.419-3.295 3.295c-4.235 4.235-4.605 10.009-.881 13.733 2.246 2.246 2.285 2.456.562 3.003-3.414 1.083-7.976 7.306-7.976 10.879 0 20.316 47.044 20.885 53.109.642 3.558-11.875-2.865-17.045-22.41-18.036-15.145-.769-18.615-2.49-15.654-7.764 1.461-2.603 1.836-2.714 8.099-2.395 16.113.818 27.14-9.325 24.183-22.246l-1-4.373 4.086-.857c3.668-.77 4.119-1.191 4.4-4.108l.314-3.25h-8.442c-5.241 0-9.802-.569-12.031-1.5-4.439-1.855-13.864-1.872-19.017-.035M813 744.5V774h11v-59h-11v29.5m106.014-20.748C908.18 729.185 913.008 745 925.5 745c4.306 0 9.278-2.67 10.934-5.872 5.651-10.928-5.922-21.143-17.42-15.376m-474.811 25.363c-12.475 2.077-17.719 9.492-11.006 15.561 2.648 2.395 11.046 2.333 15.803-.115 6.276-3.231 7-4.34 7-10.716V748l-3.25.117c-1.788.064-5.634.514-8.547.998m234.135.384c-7.315 1.59-11.142 3.87-11.958 7.124-2.488 9.912 9.914 13.592 21.018 6.237l4.602-3.048V748l-3.75.079c-2.062.044-6.523.683-9.912 1.42m234.412 23.217c-7.301 7.682 1.898 15.424 16.525 13.908 9.556-.99 15.685-5.663 14.359-10.945-.919-3.664-5.119-4.999-17.134-5.447l-11-.41-2.75 2.894" fill-rule="evenodd"/></svg>